<?xml version="1.0" standalone="no"?>
<!DOCTYPE svg PUBLIC "-//W3C//DTD SVG 20010904//EN"
 "http://www.w3.org/TR/2001/REC-SVG-20010904/DTD/svg10.dtd">
<svg version="1.0" xmlns="http://www.w3.org/2000/svg"
 width="251.000000pt" height="201.000000pt" viewBox="0 0 251.000000 201.000000"
 preserveAspectRatio="xMidYMid meet">

<g transform="translate(0.000000,201.000000) scale(0.100000,-0.100000)"
fill="#000000" stroke="none">
<path d="M1289 1885 c-341 -68 -685 -406 -814 -800 -88 -270 -70 -555 46 -736
75 -116 166 -185 297 -226 74 -23 94 -25 195 -21 159 7 273 48 457 162 66 42
258 240 315 326 145 217 215 437 215 669 0 442 -302 707 -711 626z m313 -36
c135 -47 236 -136 299 -264 71 -145 91 -287 65 -465 -37 -257 -165 -507 -359
-701 -259 -259 -577 -356 -828 -254 -155 63 -259 190 -314 385 -27 94 -25 294
3 415 96 410 397 757 760 876 116 38 277 41 374 8z"/>
<path d="M1235 1506 c-27 -13 -69 -38 -93 -55 -65 -48 -157 -181 -193 -279 -9
-24 -7 -23 18 8 101 129 250 214 379 215 51 0 66 -4 97 -28 20 -15 37 -31 37
-36 0 -4 -17 -15 -37 -25 l-37 -18 65 -34 c35 -19 78 -42 96 -51 18 -9 35 -15
38 -11 8 8 38 188 32 194 -2 2 -17 0 -33 -6 -26 -10 -31 -9 -44 12 -82 126
-207 170 -325 114z"/>
<path d="M930 1100 c0 -5 7 -10 15 -10 8 0 15 5 15 10 0 6 -7 10 -15 10 -8 0
-15 -4 -15 -10z"/>
<path d="M990 1035 c0 -60 3 -75 15 -75 12 0 15 15 15 75 0 60 -3 75 -15 75
-12 0 -15 -15 -15 -75z"/>
<path d="M810 1030 c0 -56 3 -70 15 -70 10 0 15 11 15 35 0 32 2 35 30 35 17
0 30 5 30 10 0 6 -13 10 -30 10 -20 0 -30 5 -30 15 0 10 11 15 35 15 19 0 35
5 35 10 0 6 -22 10 -50 10 l-50 0 0 -70z"/>
<path d="M1228 1093 c-22 -6 -33 -40 -18 -58 6 -7 25 -17 41 -20 41 -9 30 -30
-15 -29 -37 1 -48 -9 -20 -20 29 -11 61 -6 78 13 22 24 11 51 -25 58 -34 7
-46 20 -30 36 7 7 18 7 36 -1 20 -9 25 -9 25 2 0 12 -34 28 -50 25 -3 -1 -13
-3 -22 -6z"/>
<path d="M1330 1030 c0 -40 4 -70 10 -70 6 0 10 15 10 34 0 35 21 63 40 51 5
-3 10 -24 10 -46 0 -21 5 -39 10 -39 15 0 13 100 -2 101 -18 2 -21 1 -40 -6
-14 -6 -18 -2 -18 19 0 14 -4 26 -10 26 -6 0 -10 -30 -10 -70z"/>
<path d="M936 1063 c-3 -3 -6 -28 -6 -55 0 -36 4 -48 15 -48 11 0 15 12 15 49
0 47 -9 68 -24 54z"/>
<path d="M1576 1063 c-3 -3 -6 -28 -6 -55 0 -36 4 -48 15 -48 11 0 15 11 15
40 0 33 3 40 20 40 11 0 20 5 20 11 0 5 -8 9 -17 7 -10 -1 -23 1 -29 4 -6 4
-14 5 -18 1z"/>
<path d="M1049 1039 c-15 -29 3 -67 36 -75 29 -7 55 0 55 16 0 6 -5 8 -11 5
-14 -9 -59 3 -59 15 0 6 15 10 33 10 41 0 49 7 36 31 -14 28 -75 26 -90 -2z
m71 1 c0 -5 -12 -10 -26 -10 -14 0 -23 4 -19 10 3 6 15 10 26 10 10 0 19 -4
19 -10z"/>
<path d="M1454 1049 c-5 -9 0 -10 18 -6 17 5 30 2 38 -8 10 -13 9 -15 -11 -15
-34 0 -52 -14 -47 -36 2 -15 13 -19 46 -21 l43 -2 -3 47 c-3 46 -4 47 -40 50
-20 2 -39 -2 -44 -9z m63 -56 c5 -15 -28 -26 -41 -13 -8 8 -7 14 4 20 17 11
32 8 37 -7z"/>
<path d="M1662 1048 c-17 -17 -15 -54 4 -72 16 -17 41 -20 68 -10 27 10 18 24
-12 18 -19 -4 -32 -1 -41 10 -12 14 -9 16 22 16 39 0 50 10 41 34 -7 19 -64
22 -82 4z m58 -8 c0 -5 -12 -10 -26 -10 -14 0 -23 4 -19 10 3 6 15 10 26 10
10 0 19 -4 19 -10z"/>
<path d="M1520 868 c-147 -165 -375 -229 -464 -130 -18 21 -18 21 18 38 20 10
36 20 36 24 0 6 -191 103 -195 98 -3 -4 -35 -183 -35 -196 0 -7 13 -6 34 3 34
14 35 14 55 -18 77 -124 209 -162 339 -97 99 50 213 186 261 313 6 15 9 27 8
27 -1 0 -27 -28 -57 -62z"/>
</g>
</svg>
